<mxfile host="app.diagrams.net" modified="2023-12-06T08:29:44.322Z" agent="Mozilla/5.0 (Windows NT 10.0; Win64; x64) AppleWebKit/537.36 (KHTML, like Gecko) Chrome/119.0.0.0 Safari/537.36" etag="QDKQ_eob-uluHPnuwRoD" version="22.1.5" type="github">
  <diagram name="Page-1" id="cOyrm8dmdjl3OQqN4kDc">
    <mxGraphModel dx="1434" dy="790" grid="1" gridSize="10" guides="1" tooltips="1" connect="1" arrows="1" fold="1" page="1" pageScale="1" pageWidth="1169" pageHeight="827" math="0" shadow="0">
      <root>
        <mxCell id="0" />
        <mxCell id="1" parent="0" />
        <mxCell id="-KdSbI1lMkQsfbRExW0u-6" style="rounded=0;orthogonalLoop=1;jettySize=auto;html=1;entryX=0.5;entryY=0;entryDx=0;entryDy=0;" edge="1" parent="1" source="-KdSbI1lMkQsfbRExW0u-3" target="-KdSbI1lMkQsfbRExW0u-5">
          <mxGeometry relative="1" as="geometry" />
        </mxCell>
        <mxCell id="-KdSbI1lMkQsfbRExW0u-25" value="1.000" style="edgeLabel;html=1;align=center;verticalAlign=middle;resizable=0;points=[];" vertex="1" connectable="0" parent="-KdSbI1lMkQsfbRExW0u-6">
          <mxGeometry x="-0.0626" y="2" relative="1" as="geometry">
            <mxPoint as="offset" />
          </mxGeometry>
        </mxCell>
        <mxCell id="-KdSbI1lMkQsfbRExW0u-8" style="rounded=0;orthogonalLoop=1;jettySize=auto;html=1;dashed=1;dashPattern=12 12;" edge="1" parent="1" source="-KdSbI1lMkQsfbRExW0u-3" target="-KdSbI1lMkQsfbRExW0u-7">
          <mxGeometry relative="1" as="geometry" />
        </mxCell>
        <mxCell id="-KdSbI1lMkQsfbRExW0u-3" value="VIP" style="shape=ext;double=1;rounded=1;whiteSpace=wrap;html=1;" vertex="1" parent="1">
          <mxGeometry x="421.75" y="120" width="164" height="40" as="geometry" />
        </mxCell>
        <mxCell id="-KdSbI1lMkQsfbRExW0u-13" value="" style="edgeStyle=orthogonalEdgeStyle;rounded=0;orthogonalLoop=1;jettySize=auto;html=1;" edge="1" parent="1" source="-KdSbI1lMkQsfbRExW0u-5" target="-KdSbI1lMkQsfbRExW0u-9">
          <mxGeometry relative="1" as="geometry" />
        </mxCell>
        <mxCell id="-KdSbI1lMkQsfbRExW0u-26" value="500" style="edgeLabel;html=1;align=center;verticalAlign=middle;resizable=0;points=[];" vertex="1" connectable="0" parent="-KdSbI1lMkQsfbRExW0u-13">
          <mxGeometry x="0.0025" y="1" relative="1" as="geometry">
            <mxPoint as="offset" />
          </mxGeometry>
        </mxCell>
        <mxCell id="-KdSbI1lMkQsfbRExW0u-14" style="rounded=0;orthogonalLoop=1;jettySize=auto;html=1;entryX=0.5;entryY=0;entryDx=0;entryDy=0;" edge="1" parent="1" source="-KdSbI1lMkQsfbRExW0u-5" target="-KdSbI1lMkQsfbRExW0u-10">
          <mxGeometry relative="1" as="geometry" />
        </mxCell>
        <mxCell id="-KdSbI1lMkQsfbRExW0u-27" value="500" style="edgeLabel;html=1;align=center;verticalAlign=middle;resizable=0;points=[];" vertex="1" connectable="0" parent="-KdSbI1lMkQsfbRExW0u-14">
          <mxGeometry x="0.2207" y="1" relative="1" as="geometry">
            <mxPoint as="offset" />
          </mxGeometry>
        </mxCell>
        <mxCell id="-KdSbI1lMkQsfbRExW0u-5" value="Proxy 1" style="shape=ext;double=1;rounded=1;whiteSpace=wrap;html=1;" vertex="1" parent="1">
          <mxGeometry x="301.75" y="200" width="120" height="40" as="geometry" />
        </mxCell>
        <mxCell id="-KdSbI1lMkQsfbRExW0u-15" value="" style="edgeStyle=orthogonalEdgeStyle;rounded=0;orthogonalLoop=1;jettySize=auto;html=1;dashed=1;dashPattern=8 8;" edge="1" parent="1" source="-KdSbI1lMkQsfbRExW0u-7" target="-KdSbI1lMkQsfbRExW0u-10">
          <mxGeometry relative="1" as="geometry" />
        </mxCell>
        <mxCell id="-KdSbI1lMkQsfbRExW0u-16" style="rounded=0;orthogonalLoop=1;jettySize=auto;html=1;entryX=0.5;entryY=0;entryDx=0;entryDy=0;exitX=0.25;exitY=1;exitDx=0;exitDy=0;dashed=1;dashPattern=8 8;" edge="1" parent="1" source="-KdSbI1lMkQsfbRExW0u-7" target="-KdSbI1lMkQsfbRExW0u-9">
          <mxGeometry relative="1" as="geometry" />
        </mxCell>
        <mxCell id="-KdSbI1lMkQsfbRExW0u-7" value="Proxy 2" style="shape=ext;double=1;rounded=1;whiteSpace=wrap;html=1;" vertex="1" parent="1">
          <mxGeometry x="585" y="200" width="120" height="40" as="geometry" />
        </mxCell>
        <mxCell id="-KdSbI1lMkQsfbRExW0u-21" style="edgeStyle=orthogonalEdgeStyle;rounded=0;orthogonalLoop=1;jettySize=auto;html=1;startArrow=classic;startFill=1;" edge="1" parent="1" source="-KdSbI1lMkQsfbRExW0u-9" target="-KdSbI1lMkQsfbRExW0u-10">
          <mxGeometry relative="1" as="geometry" />
        </mxCell>
        <mxCell id="-KdSbI1lMkQsfbRExW0u-22" value="Sync" style="edgeLabel;html=1;align=center;verticalAlign=middle;resizable=0;points=[];" vertex="1" connectable="0" parent="-KdSbI1lMkQsfbRExW0u-21">
          <mxGeometry x="-0.0049" y="3" relative="1" as="geometry">
            <mxPoint as="offset" />
          </mxGeometry>
        </mxCell>
        <mxCell id="-KdSbI1lMkQsfbRExW0u-9" value="Database 1" style="image;html=1;image=img/lib/clip_art/computers/Database_128x128.png" vertex="1" parent="1">
          <mxGeometry x="322" y="320" width="80" height="80" as="geometry" />
        </mxCell>
        <mxCell id="-KdSbI1lMkQsfbRExW0u-18" value="" style="edgeStyle=orthogonalEdgeStyle;rounded=0;orthogonalLoop=1;jettySize=auto;html=1;" edge="1" parent="1" source="-KdSbI1lMkQsfbRExW0u-10" target="-KdSbI1lMkQsfbRExW0u-17">
          <mxGeometry relative="1" as="geometry" />
        </mxCell>
        <mxCell id="-KdSbI1lMkQsfbRExW0u-10" value="Database 2" style="image;html=1;image=img/lib/clip_art/computers/Database_128x128.png" vertex="1" parent="1">
          <mxGeometry x="605" y="320" width="80" height="80" as="geometry" />
        </mxCell>
        <mxCell id="-KdSbI1lMkQsfbRExW0u-17" value="Database 3" style="image;html=1;image=img/lib/clip_art/computers/Database_128x128.png" vertex="1" parent="1">
          <mxGeometry x="790" y="320" width="80" height="80" as="geometry" />
        </mxCell>
        <mxCell id="-KdSbI1lMkQsfbRExW0u-19" value="Database 1, Database 2: Write Node" style="text;html=1;align=center;verticalAlign=middle;resizable=0;points=[];autosize=1;strokeColor=none;fillColor=none;" vertex="1" parent="1">
          <mxGeometry x="280" y="530" width="220" height="30" as="geometry" />
        </mxCell>
        <mxCell id="-KdSbI1lMkQsfbRExW0u-20" value="Database 3: Read Node" style="text;html=1;align=center;verticalAlign=middle;resizable=0;points=[];autosize=1;strokeColor=none;fillColor=none;" vertex="1" parent="1">
          <mxGeometry x="280" y="570" width="150" height="30" as="geometry" />
        </mxCell>
        <mxCell id="-KdSbI1lMkQsfbRExW0u-31" value="" style="edgeStyle=orthogonalEdgeStyle;rounded=0;orthogonalLoop=1;jettySize=auto;html=1;entryX=0;entryY=0.5;entryDx=0;entryDy=0;" edge="1" parent="1" source="-KdSbI1lMkQsfbRExW0u-29" target="-KdSbI1lMkQsfbRExW0u-3">
          <mxGeometry relative="1" as="geometry">
            <mxPoint x="290" y="140" as="targetPoint" />
          </mxGeometry>
        </mxCell>
        <mxCell id="-KdSbI1lMkQsfbRExW0u-29" value="Apps" style="image;aspect=fixed;perimeter=ellipsePerimeter;html=1;align=center;shadow=0;dashed=0;spacingTop=3;image=img/lib/active_directory/users.svg;" vertex="1" parent="1">
          <mxGeometry x="140" y="86.97" width="70" height="106.06" as="geometry" />
        </mxCell>
      </root>
    </mxGraphModel>
  </diagram>
</mxfile>
